<?xml version="1.0" encoding="UTF-8"?>
<svg id="Layer_1" data-name="Layer 1" xmlns="http://www.w3.org/2000/svg" viewBox="0 0 384 384">
  <path d="M195,0c3.43,2.03,4.85,4.96,4.82,9.01-.13,15.84,0,31.67-.09,47.51-.03,6.29-5.61,10.03-10.99,7.53-2.86-1.33-4.45-3.62-4.46-6.79-.04-16.71-.02-33.42,0-50.13,0-3.39,2.11-5.45,4.73-7.14h6Z"/>
  <path d="M0,189c2.09-3.63,5.24-4.86,9.39-4.82,15.34,.14,30.68,.05,46.01,.07,1.36,0,2.78,.02,4.07,.39,3.59,1.04,5.7,4.6,5.22,8.47-.47,3.73-3.39,6.56-7.41,6.58-16.71,.09-33.42,.05-50.13,.03-3.39,0-5.45-2.1-7.14-4.73v-6Z"/>
  <path d="M384,195c-2.1,3.62-5.24,4.86-9.39,4.82-15.34-.14-30.68-.05-46.01-.07-1.36,0-2.78-.02-4.07-.39-3.6-1.05-5.7-4.6-5.21-8.48,.47-3.73,3.39-6.55,7.41-6.58,16.71-.09,33.42-.04,50.13-.03,3.39,0,5.45,2.11,7.14,4.73v6Z"/>
  <path d="M189,384c-3.62-2.1-4.86-5.23-4.82-9.39,.15-15.34,.05-30.68,.07-46.02,0-1.36,.02-2.78,.39-4.07,1.04-3.59,4.6-5.7,8.48-5.21,3.73,.46,6.56,3.39,6.58,7.41,.09,16.71,.04,33.42,.03,50.13,0,3.39-2.12,5.44-4.73,7.14h-6Z"/>
  <path d="M94.24,192.96c0-49.31,35.04-90.26,82.75-97.76,54.3-8.54,105.04,29.76,112.06,84.65,2.2,17.21,.01,33.88-6.73,49.9-2.15,5.1-6.38,7.09-10.74,5.21-4.17-1.8-5.84-5.86-4.03-10.64,2.39-6.33,4.34-12.73,5.46-19.43,7.23-43.17-22.36-85.43-65.55-93.49-44.16-8.25-86.39,19.86-95.72,63.7-9.72,45.69,20.89,90.33,67.04,97.84,14.9,2.42,29.34,.84,43.4-4.6,1.16-.45,2.32-.95,3.53-1.26,4.14-1.03,7.85,.92,9.37,4.84,1.47,3.8-.03,7.84-3.97,9.75-6.44,3.13-13.28,5.12-20.3,6.43-54.91,10.28-106.34-25.71-115.55-80.86-.84-5.06-1.26-10.16-1.01-14.28Z"/>
  <path d="M132.24,75.08c-.12,3.63-1.85,6.27-5.32,7.32-3.55,1.08-6.79,.2-8.9-3.02-2.19-3.34-4.12-6.85-6.12-10.3-5.13-8.86-10.25-17.73-15.36-26.6-.5-.86-1-1.74-1.41-2.64-1.92-4.26-.57-8.66,3.23-10.66,3.71-1.96,8.02-.84,10.41,3.02,3.09,4.99,5.93,10.13,8.87,15.21,4.19,7.24,8.37,14.49,12.56,21.73,1.07,1.85,2.15,3.68,2.04,5.94Z"/>
  <path d="M289.79,37.1c.07,.99-.78,2.67-1.72,4.3-6.98,12.12-13.98,24.23-20.98,36.34-1.35,2.34-3.01,4.36-5.84,4.87-3.18,.57-6.01-.18-7.98-2.9-2.15-2.95-2.01-6.1-.26-9.16,4.2-7.38,8.48-14.72,12.73-22.07,3.19-5.51,6.29-11.08,9.63-16.5,2.04-3.31,5.72-4.52,9.12-3.28,3.42,1.24,5.16,3.76,5.29,8.4Z"/>
  <path d="M36.96,94.23c.69-.04,2.01,.36,3.21,1.06,12.88,7.41,25.79,14.78,38.59,22.32,3.89,2.29,5.02,6.28,3.41,10.02-1.97,4.58-7.02,5.97-12.05,3.12-8.91-5.05-17.75-10.22-26.61-15.35-3.89-2.25-7.84-4.42-11.62-6.84-3.25-2.08-4.44-5.79-3.15-9.17,1.3-3.4,3.83-5.11,8.22-5.16Z"/>
  <path d="M308.8,132.22c-3.64-.15-6.13-1.96-7.27-5.41-1.15-3.5,.1-6.98,3.49-9.07,5.2-3.22,10.55-6.21,15.84-9.27,7.57-4.37,15.13-8.76,22.74-13.06,2.94-1.66,5.99-1.74,8.85,.25,2.46,1.72,3.49,4.19,3.21,7.16-.27,2.84-1.84,4.85-4.25,6.24-12.65,7.32-25.29,14.63-37.95,21.93-1.42,.82-2.94,1.39-4.66,1.23Z"/>
  <path d="M35.91,289.74c-3.64-.16-6.11-1.99-7.27-5.43-1.19-3.53,.22-7.12,3.82-9.25,7.73-4.59,15.54-9.05,23.32-13.55,4.75-2.75,9.49-5.54,14.28-8.23,4.82-2.7,9.47-1.72,11.76,2.35,2.23,3.96,.92,8.48-3.63,11.14-12.39,7.26-24.86,14.38-37.3,21.55-1.54,.88-3.15,1.54-4.99,1.41Z"/>
  <path d="M310.02,251.72c.83-.05,2.42,.68,3.94,1.56,12.33,7.12,24.67,14.21,36.97,21.38,3.98,2.32,5.49,5.64,4.54,9.32-1.3,5.02-6.75,7.34-11.71,4.64-7.67-4.18-15.19-8.65-22.76-13.03-5.41-3.12-10.86-6.17-16.16-9.47-3.33-2.07-4.49-5.69-3.25-9.15,1.23-3.42,3.77-5.16,8.43-5.26Z"/>
  <path d="M94.27,347.75c-.11-1.53,.48-3.04,1.3-4.46,7.23-12.55,14.47-25.1,21.72-37.64,1.61-2.79,3.9-4.47,7.28-4.43,6.25,.08,9.64,6.27,6.41,12.18-3.89,7.12-8.06,14.09-12.13,21.11-3.38,5.84-6.68,11.72-10.21,17.47-2.04,3.33-5.68,4.48-9.12,3.33-3.22-1.08-5.26-3.95-5.26-7.57Z"/>
  <path d="M289.74,348.11c-.18,3.64-2.01,6.1-5.45,7.25-3.41,1.14-6.99-.16-9.04-3.53-3.44-5.65-6.69-11.42-10.01-17.15-4.13-7.13-8.27-14.26-12.33-21.43-1.66-2.94-1.73-5.99,.26-8.84,1.82-2.61,4.46-3.49,7.55-3.11,2.55,.31,4.41,1.73,5.66,3.88,7.46,12.85,14.88,25.73,22.3,38.6,.76,1.32,1.15,2.76,1.05,4.33Z"/>
  <path d="M263.48,255.85c-.05,4.46-3.44,7.72-7.93,7.63-4.44-.09-7.67-3.53-7.53-8.03,.13-4.29,3.41-7.44,7.74-7.44,4.47,0,7.77,3.35,7.72,7.83Z"/>
</svg>