<?xml version="1.0" encoding="UTF-8"?>
<svg id="Layer_1" data-name="Layer 1" xmlns="http://www.w3.org/2000/svg" viewBox="0 0 261.33 384">
  <path d="M119.42,384c-9.8-1.96-19.52-4.17-28.51-8.79-29.09-14.95-46.57-38.53-50.89-70.91-3.75-28.09,4.87-52.79,23.94-73.73,2.12-2.32,2.97-4.58,2.97-7.65-.07-52.59-.07-105.18-.03-157.77,0-14.38,3.74-27.65,12.37-39.32C89.46,12.05,103.04,3.65,119.88,.51c.61-.11,1.19-.34,1.79-.51h18c11.2,2.16,21.6,6.15,30.54,13.43,15.91,12.97,23.97,29.89,24.17,50.27,.28,28.24,.07,56.49,.07,84.73,0,.87-.02,1.75-.13,2.62-.65,5.06-3.86,8.2-8.21,8.07-4.52-.14-7.62-3.62-7.63-8.94-.04-28.74,0-57.49-.04-86.23-.03-23.53-15.52-42.66-38.41-47.6-26.13-5.63-52.85,13.15-56.53,39.64-.43,3.11-.62,6.2-.62,9.33,0,53.86-.04,107.73,.08,161.59,.01,5-1.6,8.53-5.13,12.16-20.67,21.26-27.95,46.62-19.49,75.11,8.58,28.9,28.54,46.99,58.14,52.88,41.77,8.3,81.65-19.42,88.64-61.39,4.39-26.35-3.63-49.11-22.79-67.8-2.48-2.42-3.95-5.01-3.89-8.53,.09-5.75-.03-11.5,.05-17.25,.07-4.97,3.15-8.5,7.46-8.74,4.34-.24,7.9,2.9,8.32,7.89,.35,4.1,.28,8.24,.15,12.36-.09,2.71,.85,4.66,2.69,6.64,16.26,17.49,25.18,38.31,24.98,62.12-.29,34.82-15.96,61.47-45.67,79.75-10.6,6.52-22.38,9.7-34.48,11.88h-22.5Z"/>
  <path d="M157.13,152.12c0,29.61,.04,59.23-.05,88.84,0,3.03,.74,4.94,3.44,6.72,19.05,12.56,28.18,35.39,23.12,57.1-5.32,22.78-23.2,39.01-46.31,42.05-24.15,3.17-47.9-10.81-57.03-33.56-9.29-23.17-1.85-49.62,18.54-64.04,4.24-3,5.49-6.01,5.48-10.98-.17-58.1-.13-116.2-.1-174.3,0-13.45,8.78-24.33,21.31-26.66,16.62-3.1,31.51,9.04,31.57,26.01,.11,29.61,.03,59.23,.03,88.84Zm-16,56.69c0-13.49-.05-26.99,.04-40.48,.02-2.89-.94-4.07-3.91-3.93-3.74,.18-7.49,.04-11.24,.04q-5.81,0-5.82,5.67c0,23.86-.34,47.73,.17,71.59,.19,8.9-1.87,14.63-10.37,19.19-14.04,7.52-20.51,25.18-16.77,40.81,3.84,16.04,17.41,28.01,33.46,29.52,18.55,1.75,35.59-9.62,40.83-27.26,5.3-17.83-2.69-36.68-19.58-45.29-4.91-2.5-6.92-5.9-6.86-11.26,.16-12.87,.05-25.74,.05-38.61Zm-20.9-105.32s-.02,0-.03,0c0,13.5,.09,27-.06,40.49-.04,3.47,1.16,4.66,4.56,4.49,4.24-.22,8.5-.16,12.74-.02,2.78,.09,3.72-1.07,3.72-3.77-.06-27.12-.05-54.24-.05-81.36,0-2.45-.58-4.68-2.17-6.62-2.85-3.48-7.41-4.92-11.44-3.57-4.37,1.47-7.2,5.08-7.24,9.88-.1,13.5-.03,27-.03,40.49Z"/>
  <path d="M234.56,117.97c-5.74,0-11.47,.06-17.21-.02-5.27-.07-8.69-3.11-8.84-7.68-.15-4.31,2.99-7.94,8.08-8.05,12.21-.28,24.43-.28,36.64,0,5.09,.11,8.23,3.72,8.1,8.03-.14,4.58-3.55,7.63-8.82,7.7-5.98,.08-11.97,.02-17.95,.02Z"/>
  <path d="M234.92,210.9c-5.74,0-11.47,.05-17.21-.02-5.39-.06-9.08-3.25-9.2-7.8-.13-4.68,3.59-8.13,9.21-8.18,11.47-.1,22.94-.1,34.42,0,5.61,.05,9.33,3.52,9.2,8.19-.13,4.54-3.82,7.73-9.21,7.79-5.74,.07-11.47,.01-17.21,.01Z"/>
  <path d="M225.56,164.42c-2.99,0-5.99,.12-8.97-.03-4.73-.23-7.93-3.37-8.08-7.69-.13-4.05,2.81-7.75,7.29-8.01,6.45-.38,12.96-.39,19.41-.03,4.84,.27,7.59,3.74,7.44,8.18-.15,4.35-3.28,7.34-8.12,7.56-2.98,.13-5.98,.02-8.97,.02Z"/>
  <path d="M225.67,55.98c3.12,0,6.25-.1,9.37,.02,4.55,.18,7.56,3.25,7.61,7.57,.06,4.35-2.89,7.72-7.34,7.84-6.49,.18-12.99,.18-19.48,0-4.27-.12-7.4-3.76-7.32-7.96,.08-4.04,3.15-7.22,7.42-7.42,3.24-.15,6.49-.03,9.74-.03,0,0,0-.01,0-.02Z"/>
  <path d="M194.19,181.38c-.11,4.27-3.76,7.81-7.99,7.74-4.21-.07-7.76-3.77-7.7-8.02,.06-4.21,3.85-7.88,7.99-7.75,4.3,.14,7.81,3.79,7.7,8.03Z"/>
  <path d="M26.41,117.97c-5.86,0-11.72,.06-17.58-.02-5.26-.07-8.68-3.13-8.82-7.7-.14-4.33,2.99-7.92,8.09-8.04,12.21-.28,24.43-.28,36.64,0,5.08,.11,8.23,3.74,8.08,8.05-.15,4.57-3.57,7.62-8.84,7.69-5.86,.08-11.72,.02-17.58,.02Z"/>
  <path d="M26.47,210.9c-5.74,0-11.47,.05-17.21-.01-5.55-.06-9.34-3.43-9.27-8.11,.07-4.54,3.7-7.82,9.15-7.87,11.47-.1,22.94-.1,34.42,0,5.62,.05,9.36,3.47,9.27,8.13-.09,4.67-3.85,7.81-9.52,7.86-5.61,.05-11.22,.01-16.83,0Z"/>
  <path d="M35.52,164.41c-2.99,0-5.99,.13-8.97-.03-4.63-.26-7.67-3.23-7.86-7.42-.2-4.34,2.34-7.75,6.95-8.23,6.69-.7,13.45-.66,20.14-.02,4.42,.42,7.31,4.21,7.04,8.24-.28,4.17-3.41,7.1-7.95,7.46-.25,.02-.5,.02-.75,.02-2.87,0-5.73,0-8.6,0,0,0,0-.02,0-.02Z"/>
  <path d="M35.79,71.48c-3.12,0-6.25,.1-9.37-.02-4.7-.18-7.78-3.4-7.73-7.87,.05-4.32,3.05-7.48,7.6-7.57,6.37-.13,12.74-.14,19.11,.02,4.27,.11,7.35,3.37,7.44,7.4,.09,4.22-3.02,7.75-7.31,7.99-3.24,.18-6.49,.04-9.74,.04v.02Z"/>
</svg>