<?xml version="1.0" encoding="UTF-8"?>
<svg id="Layer_1" data-name="Layer 1" xmlns="http://www.w3.org/2000/svg" viewBox="0 0 384 384">
  <path d="M384,164.25c-2.41,9.16-8.18,15.42-16.41,19.9-9.43,5.14-18.63,10.71-27.95,16.06-4.75,2.73-9.46,1.88-11.83-2.04-2.48-4.11-.98-8.75,3.95-11.64,9.6-5.62,19.26-11.12,28.87-16.71,9-5.23,10.47-11.93,4.19-20.12-26.86-34.99-53.8-69.92-80.63-104.92-1.63-2.12-2.85-2.45-5.21-1.08-34.8,20.19-69.63,40.32-104.51,60.37-2.39,1.37-2.68,2.67-1.67,5.1,16.99,40.96,33.89,81.96,50.84,122.94,3.43,8.3,10.47,10.69,18.23,6.25,9.65-5.52,19.27-11.11,28.92-16.62,5.08-2.9,9.6-2,11.99,2.25,2.37,4.21,.73,8.64-4.28,11.52-10.29,5.92-20.46,12.05-30.91,17.67-11.42,6.14-25.02,3.39-33.38-6.21-2.5-2.87-4.16-6.22-5.59-9.69-8.38-20.33-16.83-40.62-25.07-61-1.42-3.52-3.56-5.63-6.96-7.21-17.56-8.15-35.06-16.44-52.5-24.87-3.11-1.5-5.79-1.65-8.9-.31-2.5,1.08-5.16,2.07-7.84,2.42-10.59,1.39-19.08-8.2-16.48-18.92,3.1-12.74,6.48-25.42,10.19-37.99,3.44-11.67,17.25-14.75,25.74-6.02,.96,.98,1.84,2.04,2.71,3.1,5.45,6.64,11.43,9.53,20.92,9.92-.92-2.31-1.79-4.48-2.66-6.65-5.65-14.18-1.21-27.64,12.11-35.43,23.08-13.5,46.29-26.77,69.45-40.14,4.98-2.87,9.88-5.88,14.96-8.57,10.84-5.75,21.17-4.6,30.86,2.77,1.32,1,2.34,2.15,4.22,.93C287.04,4.36,295.67,1.9,304.5,0,310.75,0,317,0,323.25,0c.84,.2,1.68,.45,2.53,.61,50.9,9.41,72.8,69.06,40.13,109.12-1.99,2.44-6.13,4.18-5.56,7.39,.51,2.86,3.57,5.26,5.44,7.9,6.31,8.91,14.56,16.54,18.21,27.24v12ZM314.17,15.29c-8.24,.41-15.87,1.98-23.09,5.48-2.88,1.4-3.64,2.51-1.37,5.43,19.39,24.97,38.65,50.04,57.84,75.16,1.94,2.53,2.94,2.11,4.73,.01,9.6-11.28,14.12-24.12,12.96-39.04-1.81-23.22-20.78-46.3-51.07-47.05Zm-152.79,63.49c-.24,3,1.64,5.81,2.59,8.89,.89,2.89,2.04,3.2,4.76,1.61,16.8-9.87,33.72-19.53,50.6-29.28,16.55-9.55,33.07-19.17,49.67-28.64,2.58-1.47,3.27-2.75,1.01-4.97-.62-.61-1.08-1.37-1.61-2.07-5.31-6.92-10.74-8.12-18.21-3.85-13.99,8-27.94,16.07-41.89,24.12-13.31,7.68-26.61,15.37-39.91,23.07-4.12,2.38-7.05,5.58-7,11.11Zm11.11,70.94c-4.73-11.44-9.08-21.91-13.38-32.4-.73-1.79-2.22-2.18-3.82-2.6-8.21-2.16-16.4-4.41-24.63-6.49-3.04-.77-5.5-2.19-7.47-4.63-2.23-2.78-4.61-5.44-7.31-8.62-2.92,10.89-5.69,21.12-8.37,31.37-.26,1-1.34,2.27-.24,3.11,.95,.73,2.17-.16,3.13-.65,6.6-3.35,12.99-3.71,19.43,.6,2.57,1.72,5.61,2.73,8.43,4.07,11.05,5.24,22.1,10.49,34.23,16.25Z"/>
  <path d="M0,319.5c2.73-3.63,6.45-4.81,10.86-4.6,6.23,.3,12.47-.25,18.71,.49,7.11,.84,13.55,3.23,19.53,7.09,1.1,.71,1.99,1.91,3.86,1.91,0-6.26,.04-12.46-.03-18.66-.02-1.65-1.43-2.57-2.47-3.62-5-5.07-10.33-9.84-14-16.05-9.89-16.74-7.8-37.72,5.36-52.2,4.2-4.62,8.7-8.97,13.2-13.3,3.67-3.54,8.03-3.7,11.73-.22,5.46,5.13,10.96,10.26,15.64,16.14,13.27,16.7,12.27,41.1-2.25,56.78-.93,1.01-1.75,2.22-2.89,2.93-11.28,7.03-7.79,18.03-8.1,28.9,5.89-4.31,11.6-7.28,17.98-8.78,9.13-2.14,18.4-1.44,27.62-1.19,4.38,.12,7.51,3.24,7.58,7.39,.13,7.85,.83,15.76-.42,23.57-3.12,19.58-15.59,32.84-34.99,37.44-.48,.11-.94,.32-1.41,.48H36.75c-7.24-1.65-14.02-4.28-19.99-8.87-9.04-6.95-14-16.35-16.76-27.13v-28.5Zm53.06,41.34c.2-5.14-.82-10.48-3.64-15.38-6.34-11-19.55-16.91-32.08-14.5-1.58,.3-1.98,1.13-2.08,2.55-1.6,21.34,10.97,35.09,30.46,35.19,8.4,.04,7.22,.95,7.33-7.87Zm16.02-.15c0,1.5-.02,3,0,4.5,.03,1.62-.16,3.45,2.27,3.51,6.15,.16,12.28,.05,18.03-2.49,12.67-5.6,19.74-19.51,17-33.12-.31-1.54-1.12-1.99-2.54-2.14-24.03-2.54-36,14.92-34.76,29.73Zm6.58-96.25c.26-9.01-2.96-15.77-8.68-21.53-6-6.04-6.01-6.11-11.99,.01-6.86,7.02-9.91,15.26-8.46,25.2,1.31,8.97,7.05,14.89,13.19,20.67,.88,.83,1.66,.92,2.59,.07,7.41-6.83,13.87-14.16,13.36-24.42Z"/>
  <path d="M27.95,104.26c.36,.08,1.23,.21,2.05,.48,3.37,1.12,5.56,4.24,5.44,7.68-.14,4.04-4.96,9.78-8.9,10.59-3.25,.67-6.61-1.22-8.5-4.19-3.47-5.45,4.56-14.85,9.91-14.57Z"/>
  <path d="M52.74,155.9c1.04,8.59-6.88,11.59-11.36,9.04-3.97-2.26-5.79-10.01-3.26-14.72,2.01-3.73,6.88-5.13,10.65-3.07,3.6,1.97,4.28,5.25,3.97,8.75Z"/>
  <path d="M22.76,155.9c0,7.06-4.36,11.15-10,9.31-3.26-1.06-5.22-3.3-5.47-6.81-.1-1.49-.08-2.99-.03-4.48,.17-4.79,3.15-7.87,7.61-7.93,4.65-.06,7.7,3.05,7.88,8.04,.02,.62,0,1.24,0,1.87Z"/>
  <path d="M67.9,117.5c5.09,0,8.64,3.16,8.67,7.7,.03,4.61-3.65,7.81-8.99,7.82-5.2,0-8.54-3-8.56-7.7-.02-4.81,3.4-7.82,8.87-7.82Z"/>
  <path d="M64.16,103.01c-5.11-.01-8.74-3.25-8.71-7.77,.02-4.53,3.64-7.72,8.77-7.74,5.35-.03,8.69,2.86,8.77,7.59,.08,4.89-3.31,7.94-8.82,7.93Z"/>
  <path d="M22.76,199.26c0,5.32-2.94,8.66-7.65,8.72-4.88,.06-7.9-3.35-7.86-8.88,.03-5.09,3.31-8.72,7.83-8.66,4.53,.06,7.68,3.67,7.68,8.82Z"/>
  <path d="M37.24,199.35c-.02-5.18,3.05-8.79,7.59-8.9,4.51-.12,7.87,3.52,7.92,8.58,.06,5.54-2.92,8.97-7.78,8.96-4.74-.01-7.71-3.33-7.73-8.63Z"/>
  <path d="M297.52,210.7c.09-4.39,3.62-7.74,8.05-7.61,4.19,.12,7.44,3.55,7.41,7.84-.02,4.41-3.58,7.96-7.84,7.84-4.38-.13-7.71-3.65-7.63-8.07Z"/>
</svg>