<?xml version="1.0" encoding="UTF-8"?>
<svg id="Layer_1" data-name="Layer 1" xmlns="http://www.w3.org/2000/svg" viewBox="0 0 384 366.68">
  <path d="M384,45.38c-1.72,5.2-5.58,6.89-10.74,6.88-25.49-.06-50.99,.06-76.48-.07-9.49-.05-17.85-3.34-24.67-10.11-4.08-4.05-8.09-8.17-12.2-12.18-9.06-8.83-19.79-13.79-32.59-13.8-15.87,0-31.74-.02-47.61,0-4.02,0-4.44,.76-2.33,4.3,3.21,5.38,8.11,8.02,14.28,8.2,4.99,.15,10,0,14.99,.05,6.49,.06,9.76,3.33,9.38,9.83-.7,12,2.28,22.52,11.57,30.72,4.1,3.61,8.91,5.92,14.01,7.77,3.04,1.1,5,3.22,5.38,6.58,.35,3.14-.74,5.65-3.33,7.45-2.36,1.63-4.97,1.66-7.54,.76-19.4-6.79-31.67-19.86-35.31-40.42-1.19-6.73-1.1-6.75-8.05-6.74-22.37,.02-44.74,0-67.1,.09-4.68,.02-7.08,2.37-7.04,6.41,.04,3.92,2.69,6.51,6.98,6.77,1.12,.07,2.25,.03,3.37,.03,15.75,0,31.49,0,47.24,0,1.12,0,2.25-.04,3.37,.04,4.35,.3,7.29,3.22,7.5,7.38,.21,4.23-2.29,7.38-6.65,8.11-1.96,.33-3.98,.4-5.97,.41-22.12,.03-44.24,.02-66.36,.02-1.37,0-2.75-.03-4.12,.04-4.47,.21-7.1,2.73-6.96,6.6,.14,3.69,2.75,6.07,7.09,6.08,23.62,.05,47.24,.03,70.85,.05,1.74,0,3.52,0,5.22,.31,4.61,.81,7.13,3.97,6.88,8.34-.25,4.25-3.33,7.1-7.96,7.33-1.12,.06-2.25,.02-3.37,.02-15.12,0-30.24,0-45.36,0-1.25,0-2.51-.06-3.74,.1-3.48,.47-5.78,3.24-5.72,6.74,.06,3.53,2.42,6.11,6.12,6.22,5.12,.16,10.25,.06,15.37,.06,11.62,0,23.24,0,34.86-.03,1.89,0,3.75,.08,5.48,.96,3.13,1.59,4.54,4.15,4.33,7.63-.2,3.37-1.98,5.57-5.09,6.72-1.78,.66-3.65,.74-5.54,.74-10.12,0-20.24,0-30.37,.06-4.59,.03-7.63,2.61-7.73,6.4-.11,3.89,3.06,6.69,7.85,6.7,16.25,.04,32.49-.02,48.74,.07,2.31,.01,3.51-.9,4.76-2.77,4.9-7.34,11.6-13.05,18.03-18.96,2.93-2.7,7.33-2.4,10.28,.43,5.31,5.11,10.56,10.3,15.48,15.78,1.83,2.04,3.21,2.2,5.39,1.1,8.49-4.33,16.07-10.1,23.99-15.32,5.05-3.33,10.53-5.33,16.46-5.66,5.85-.33,11.77-.36,17.6,.09,19.66,1.53,39.29,3.32,58.93,5.06,3.1,.27,6.18,.9,9.28,1.16,4.68,.38,7.64,2.72,8.9,7.24v2.25c-1.93,5.09-5.59,6.84-10.94,6.26-14.01-1.54-28.03-3.11-42.09-4.16-13.17-.99-26.31-2.74-39.59-2.07-3.89,.2-7.26,1.41-10.49,3.5-8.59,5.56-16.6,12.14-26.1,16.13-4.17,1.75-7.18,3.72-8.32,8.45-.82,3.42-3.65,5.89-6.15,8.36-4.08,4.04-7.99,8.28-12.23,12.14-3.81,3.48-7.76,3.53-11.33-.21-6.51-6.83-14.58-12.31-18.74-21.22-.99-2.12-2.92-1.6-4.58-1.6-15.62-.04-31.24,.04-46.86-.04-11.79-.06-20.64-6.73-23.35-17.35-.82-3.2-.72-6.48-.23-9.68,.3-1.93-.28-2.55-2.01-3.19-11.8-4.36-17.26-13.02-15.82-25.22,.27-2.29-.45-2.75-2.5-2.95-12.58-1.2-21.08-9.76-21.7-21.7-.57-10.97,7.58-20.52,19.7-22.81,2.25-.43,2.4-1.24,2.14-3.25-1.89-14.65,8.13-26.07,22.87-26.13,11.37-.05,22.74-.07,34.11,.01,2.78,.02,3.6-.51,2.27-3.37-2.68-5.79-3.48-11.97-2.59-18.29,.6-4.26,3.36-6.8,7.62-6.82,21.62-.06,43.26-.54,64.85,.23,14.27,.51,26.79,6.7,37.27,16.54,4.28,4.02,8.47,8.15,12.46,12.45,4.48,4.83,9.92,6.82,16.4,6.8,25.12-.06,50.23,.05,75.35-.07,5.29-.02,8.95,1.77,10.57,6.98v2.25Zm-171.57,108.08c-.05,2.83,.64,4.34,3,6.84q6.97,7.39,13.96,.18c4.57-4.71,4.56-8.46-.06-13.28q-6.61-6.9-13.26-.18c-1.86,1.88-3.81,3.69-3.64,6.43Z"/>
  <path d="M384,361.88c-2.15,3.58-5.3,4.8-9.45,4.79-50-.08-99.99-.05-149.99-.06-6.19,0-9.65-2.95-9.53-8.02,.09-3.7,2.48-6.72,6.23-7.37,2.44-.42,4.97-.53,7.46-.53,44.87-.03,89.74-.02,134.61-.02,5.39,0,5.4-.01,5.4-5.35,0-21.37-.07-42.75,.07-64.12,.02-3.56-.93-4.81-4.61-4.7-8.69,.26-16.07-3.03-22.18-9.21-3.07-3.11-6.16-6.21-9.29-9.27-3.64-3.56-7.98-5.41-13.13-5.49-9.35-.13-17.5-3.22-24.55-9.55-11.55-10.36-27.62-7.75-35.42,5.55-7.97,13.58-15.77,27.26-23.87,40.76-16.61,27.68-52.65,33.86-77.54,13.4-5.19-4.27-9.12-9.57-12.27-15.46-4.37-8.15-8.83-16.25-13.06-24.48-1.88-3.65-4.36-5.91-8.62-6.12-7.28-.36-13.14-3.71-17.87-9.09-10.61-12.05-28.27-12.22-39.16,.16-4.94,5.62-10.6,10.61-15.78,16.03-8.43,8.82-18.64,13.12-30.84,12.86-5.33-.12-5.34,0-5.34,5.29,0,21.12,0,42.25,0,63.37,0,5.4,0,5.41,5.34,5.41,43.62,0,87.24,0,130.86,.02,2.36,0,4.77,.08,7.08,.5,3.98,.72,6.64,4.27,6.36,8.09-.28,3.8-3.38,6.9-7.35,7.28-.99,.09-2,.06-3,.06-48.25,0-96.49-.03-144.74,.06-4.25,0-7.6-1.04-9.83-4.8v-96.75c2.74-3.62,6.45-4.81,10.87-4.61,3.49,.16,7-.13,10.49,.06,7.38,.4,13.38-2.34,18.45-7.54,5.66-5.82,11.31-11.65,17.06-17.39,17.46-17.41,42.36-17.46,59.81-.02,3.24,3.24,6.64,5.08,11.37,5.55,8.27,.83,14.19,5.63,18.1,12.97,4.82,9.04,9.57,18.11,14.61,27.03,5.2,9.19,13.08,14.88,23.51,17,14.68,2.98,29.71-3.36,37.41-16.23,8.47-14.15,16.62-28.48,25.03-42.66,7.07-11.92,17.41-17.91,31.5-18.04,10.98-.1,20.33,2.97,28.23,10.65,3.16,3.07,7.18,4.49,11.59,4.56,10.92,.17,19.98,4.21,27.67,12.1,13.47,13.81,10.09,11.92,28.18,11.96,4.18,0,7.55,1.31,10.12,4.61v96.75Z"/>
  <path d="M190.03,259.38c-3.5,0-7,.07-10.49-.02-4.8-.13-7.87-2.95-7.96-7.64-.14-7.24-.29-14.5,.05-21.73,.52-11.17,10.58-20.57,22.5-21.13,6.36-.3,12.74-.18,19.11-.03,5.08,.12,8.56,2.86,8.72,7.51,.28,8.09,.97,16.25-.45,24.3-1.95,11.05-11.2,18.63-22.49,18.75-3,.03-6,0-8.99,0Zm-2.46-23.08s-.03,0-.04,0c0,1.74-.03,3.49,0,5.23,.04,1.49,.82,2.31,2.35,2.29,3.11-.03,6.26,.18,9.33-.19,4.5-.54,6.75-3.3,6.87-7.86,.07-2.74-.01-5.49,.02-8.23,.02-1.85-.8-2.76-2.7-2.73-3.12,.05-6.24-.12-9.34,.11-3.75,.27-6.13,2.77-6.47,6.52-.15,1.61-.02,3.24-.02,4.86Z"/>
  <path d="M322.32,329.86c-3.03,.1-5.3-1.23-6.83-3.79-1.63-2.72-1.76-5.67,.19-8.1,4.62-5.74,9.82-10.98,15.58-15.57,3.02-2.41,6.84-1.84,9.59,.72,2.8,2.62,3.63,6.74,1.2,9.84-4.55,5.78-9.98,10.79-15.49,15.67-1.14,1.01-2.69,1.27-4.23,1.22Z"/>
  <path d="M283.11,275.49c3,0,6-.13,8.98,.03,4.77,.25,7.95,3.37,8.09,7.7,.14,4.22-2.98,7.87-7.66,8.1-6.35,.31-12.73,.3-19.08,.03-4.68-.2-7.84-3.82-7.73-8.05,.11-4.29,3.29-7.49,8.04-7.77,3.11-.18,6.24-.03,9.36-.04Z"/>
  <path d="M56.53,302.2c-3.02,.03-5.28-1.28-6.77-3.9-1.57-2.77-1.64-5.63,.35-8.09,4.24-5.25,9.01-10.04,14.25-14.28,2.85-2.3,7.14-1.72,9.67,.68,2.69,2.55,3.61,6.55,1.39,9.54-4.25,5.72-9.48,10.57-14.96,15.12-1.08,.9-2.55,.95-3.94,.94Z"/>
  <path d="M127.04,321.63c-.02,3.67-1.39,6.05-4.22,7.43-2.79,1.36-5.81,1.39-8.09-.71-4.76-4.38-9.39-8.92-13.72-13.72-2.67-2.97-2.05-7.44,.72-10.19,2.65-2.63,7.04-3.31,9.87-.77,4.9,4.39,9.44,9.2,14.03,13.93,1.15,1.18,1.47,2.86,1.41,4.03Z"/>
  <path d="M189.66,351.14c4.52-.04,7.99,3.26,8.01,7.6,.01,4.38-3.45,7.85-7.82,7.85-4.4,0-7.83-3.47-7.78-7.85,.05-4.29,3.31-7.55,7.6-7.59Z"/>
</svg>