<?xml version="1.0" standalone="no"?>
<!DOCTYPE svg PUBLIC "-//W3C//DTD SVG 20010904//EN"
 "http://www.w3.org/TR/2001/REC-SVG-20010904/DTD/svg10.dtd">
<svg version="1.0" xmlns="http://www.w3.org/2000/svg"
 width="96pt" height="96pt" viewBox="0 0 96 96"
 preserveAspectRatio="xMidYMid meet">
<metadata>
Created by potrace 1.15, written by Peter Selinger 2001-2017
</metadata>
<g transform="translate(0, 96) scale(0.008,-0.008)"
fill="#000000" stroke="none">
<path d="M10017 10066 c-119 -50 -288 -217 -429 -426 -40 -58 -86 -124 -103
-147 l-32 -42 -6 68 c-7 85 -35 164 -83 237 -98 148 -248 154 -318 12 -50 -99
-25 -200 65 -269 48 -37 148 -86 203 -100 76 -19 76 -33 0 -158 l-66 -109 -32
61 c-67 130 -238 205 -333 147 -44 -26 -82 -86 -89 -141 -12 -88 50 -162 165
-196 48 -14 68 -14 135 -5 44 7 81 10 83 8 5 -5 -170 -356 -177 -356 -3 1 -21
24 -40 53 -61 90 -168 146 -257 132 -61 -9 -134 -61 -152 -108 -51 -136 150
-272 339 -228 24 5 46 9 47 7 4 -4 -152 -366 -157 -365 -3 0 -34 37 -70 81
-117 145 -140 167 -214 203 -86 43 -176 56 -291 43 -155 -17 -291 -56 -428
-124 -198 -98 -327 -224 -447 -439 -18 -33 -34 -61 -35 -62 0 -1 -33 9 -72 22
-67 24 -73 24 -121 10 -37 -11 -57 -13 -77 -5 -45 17 -68 11 -137 -35 -37 -25
-69 -45 -72 -45 -13 0 -89 149 -102 202 -15 56 -15 85 -5 253 13 203 5 328
-25 435 -40 139 -143 273 -250 326 -68 33 -188 44 -287 24 -184 -35 -393 -164
-489 -301 -32 -45 -58 -68 -101 -92 -32 -17 -86 -57 -119 -89 -33 -32 -62 -57
-63 -56 -9 11 -164 383 -160 386 2 2 91 5 197 6 181 1 196 2 236 24 54 29 82
73 82 132 0 81 -65 150 -140 150 -87 0 -230 -61 -295 -125 -22 -22 -56 -60
-76 -84 l-35 -45 -66 155 -67 154 117 7 c230 13 362 78 391 192 16 65 -1 114
-47 133 -99 41 -347 -69 -466 -209 l-34 -40 -13 23 c-8 16 -11 66 -10 154 2
148 -11 206 -59 273 -56 78 -138 93 -220 38 -79 -52 -95 -119 -50 -211 33 -68
160 -194 232 -229 50 -24 68 -42 68 -64 0 -4 -44 -8 -98 -8 -149 -2 -258 -49
-296 -127 -26 -55 -21 -85 22 -127 45 -45 103 -59 173 -40 61 16 97 47 165
139 33 44 62 80 65 81 3 0 35 -62 71 -137 l65 -138 -74 -8 c-110 -11 -179 -40
-239 -101 -126 -129 -76 -273 92 -263 97 5 146 40 214 154 30 51 56 90 58 88
4 -4 152 -347 152 -352 0 -2 -23 -3 -50 -3 -67 0 -194 -43 -252 -85 -71 -52
-101 -97 -106 -161 -4 -52 -3 -55 36 -94 37 -37 43 -40 98 -40 110 0 186 60
264 210 22 44 44 80 48 80 14 -1 141 -308 161 -389 12 -47 20 -85 18 -86 -1
-1 -48 -6 -103 -12 -125 -13 -207 -47 -263 -108 -59 -65 -75 -100 -77 -180 -1
-66 -3 -70 -30 -82 -42 -18 -86 -16 -135 7 -60 27 -83 25 -147 -11 -59 -33
-83 -34 -157 -6 -33 12 -45 13 -70 3 -35 -14 -75 -69 -75 -102 0 -13 -6 -28
-13 -33 -6 -6 -27 -23 -46 -38 -18 -15 -42 -46 -52 -69 -15 -37 -25 -45 -70
-61 -36 -13 -62 -30 -86 -60 -39 -47 -75 -55 -123 -28 -50 29 -136 10 -160
-35 -7 -12 -8 -50 -4 -100 l7 -81 -50 -52 c-28 -29 -61 -71 -72 -94 -12 -24
-26 -43 -31 -43 -14 0 -156 72 -425 215 -126 67 -383 199 -570 293 -187 94
-416 213 -510 266 -115 64 -173 91 -180 84 -11 -11 3 -25 295 -282 444 -390
844 -708 1123 -891 94 -62 137 -96 137 -109 0 -14 -5 -17 -22 -12 -154 44
-263 51 -333 22 -92 -39 -138 -114 -138 -226 -1 -155 76 -303 238 -460 65 -63
77 -84 111 -186 61 -188 142 -284 331 -394 62 -36 113 -70 113 -76 0 -21 -46
-52 -90 -61 -41 -9 -51 -6 -122 29 -54 26 -82 47 -93 67 -25 49 -67 72 -127
70 -50 -2 -67 5 -348 151 -162 85 -441 226 -620 313 -179 88 -487 244 -685
347 -420 219 -599 304 -622 296 -11 -5 57 -77 258 -274 333 -326 398 -386 564
-526 72 -60 136 -115 143 -121 10 -9 3 -21 -32 -59 -71 -78 -99 -145 -104
-251 -2 -68 2 -108 17 -164 l19 -74 -61 6 c-34 4 -123 12 -198 18 l-137 13 25
39 c47 75 75 166 80 262 4 80 2 95 -19 135 -48 93 -136 104 -214 26 -53 -52
-67 -102 -62 -215 4 -82 10 -104 65 -228 4 -10 -33 -13 -166 -13 -105 0 -171
4 -171 10 0 5 19 56 42 112 40 97 42 109 43 204 0 96 -1 102 -29 138 -16 21
-49 47 -73 58 -37 16 -49 17 -79 8 -19 -6 -45 -26 -58 -43 -40 -54 -49 -100
-43 -216 4 -88 10 -120 36 -185 17 -43 30 -80 29 -81 -4 -3 -282 -33 -285 -30
-1 0 15 37 37 81 43 86 58 166 46 247 -12 79 -87 167 -143 167 -30 0 -80 -44
-105 -94 -41 -79 -21 -252 43 -378 21 -41 22 -40 -52 -53 -31 -6 -44 -2 -79
24 -62 45 -159 72 -256 73 -71 1 -91 -3 -146 -29 -36 -17 -82 -47 -103 -68
-42 -43 -85 -126 -85 -168 0 -106 117 -184 238 -156 78 17 218 105 307 191 67
65 85 78 112 78 l33 0 -27 -52 c-22 -43 -27 -70 -31 -144 -7 -157 32 -233 126
-242 65 -6 104 15 139 76 22 38 28 59 28 109 0 56 -6 73 -56 171 l-57 109 52
12 c68 16 255 35 263 27 3 -3 -8 -36 -25 -73 -41 -89 -56 -161 -49 -242 9
-129 58 -194 144 -194 50 0 85 21 121 73 45 67 23 192 -59 334 -27 46 -38 76
-32 84 4 8 11 13 16 13 4 -1 86 -1 182 -1 l174 0 -34 -67 c-62 -119 -70 -252
-22 -325 29 -42 101 -73 150 -64 143 27 155 221 26 415 l-23 34 125 -7 c114
-7 280 -24 286 -30 1 -1 -23 -52 -54 -113 -53 -104 -57 -117 -61 -195 -5 -98
12 -143 73 -196 65 -58 135 -35 183 61 45 90 39 175 -22 338 -19 52 -34 95
-32 96 1 2 86 -8 187 -21 263 -35 280 -38 277 -45 -66 -126 -91 -216 -86 -305
4 -82 24 -129 75 -180 29 -29 44 -36 75 -36 51 0 90 21 125 67 26 34 28 42 28
132 -1 89 -4 103 -43 199 -23 56 -42 104 -42 106 0 2 8 2 18 0 9 -2 125 -24
258 -50 l241 -47 -53 -74 c-113 -158 -128 -276 -50 -395 l18 -28 -248 0 c-393
0 -629 -23 -961 -91 -98 -21 -154 -37 -157 -46 -7 -17 -8 -17 154 -38 160 -20
292 -45 609 -115 735 -161 1514 -280 2035 -310 223 -14 243 -17 99 -19 -83 -1
-113 -4 -113 -13 0 -7 47 -292 103 -633 l103 -620 64 -3 65 -3 130 -1037 131
-1037 614 -2 615 -3 24 35 c41 61 133 137 206 171 208 99 449 53 609 -116 36
-39 66 -75 66 -80 0 -7 215 -9 618 -8 l617 3 28 220 c15 121 73 587 130 1035
l102 815 65 5 65 5 96 582 c53 321 99 589 102 596 4 10 34 16 99 20 85 7 105
13 96 34 -2 4 -43 24 -93 44 -49 20 -130 56 -180 80 l-90 42 87 13 c49 8 114
20 146 27 43 10 80 11 142 4 49 -5 199 -5 350 0 363 11 515 8 650 -11 144 -21
398 -77 532 -117 144 -43 148 -44 148 -27 0 28 -243 172 -455 269 -320 148
-462 182 -890 214 -115 9 -218 18 -227 21 -16 5 -15 8 8 32 15 15 46 69 70
119 26 55 54 99 69 109 17 11 64 19 152 26 262 19 415 78 545 208 102 102 133
165 133 270 -1 86 -14 117 -77 186 -23 25 -39 46 -37 48 2 2 159 7 349 11 398
8 531 1 915 -51 520 -70 711 -88 964 -88 124 -1 195 3 198 9 2 6 -27 24 -64
40 -38 16 -259 124 -493 240 -589 292 -732 349 -1005 400 -251 46 -409 59
-720 60 -330 0 -469 -14 -690 -70 l-130 -32 -65 31 c-54 26 -66 36 -68 59 -3
26 -1 27 38 27 84 0 160 65 160 137 0 31 3 33 58 48 230 64 305 91 388 141
160 96 253 263 254 456 0 188 -128 318 -386 393 -48 14 -89 27 -91 29 -6 6
358 308 364 302 1 -1 9 -49 17 -106 20 -129 41 -190 84 -241 96 -112 302 -68
302 65 0 116 -122 262 -267 321 l-55 23 144 100 c145 101 240 162 252 162 3 0
6 -26 6 -57 1 -86 25 -207 52 -255 63 -115 211 -120 268 -9 26 52 25 104 -4
166 -30 64 -73 106 -164 160 -40 24 -72 47 -71 52 1 4 77 54 168 111 l166 102
6 -118 c7 -146 23 -186 89 -220 152 -78 245 117 124 261 -15 18 -51 53 -81 79
l-54 48 90 45 90 45 5 -33 c3 -17 7 -50 9 -73 10 -89 58 -144 125 -144 49 0
92 63 92 135 0 37 -34 84 -81 112 -16 10 -29 21 -29 25 0 4 26 8 58 8 76 0
152 22 219 62 61 37 118 96 127 134 14 53 -46 116 -124 129 -54 9 -155 -18
-210 -57 -25 -18 -70 -37 -102 -43 l-57 -12 -11 27 c-14 34 -46 65 -80 78 -58
22 -120 -37 -120 -112 l0 -35 -57 -7 c-53 -6 -58 -5 -72 17 -9 13 -34 43 -56
66 -64 66 -115 69 -180 11 -44 -38 -57 -61 -64 -112 l-6 -40 -255 -42 c-441
-73 -684 -136 -929 -241 -212 -90 -304 -154 -502 -350 l-147 -145 -6 44 c-3
23 -6 56 -6 72 0 16 -4 44 -11 63 -10 31 -9 35 20 62 35 33 45 66 39 126 -7
59 -41 103 -103 132 -57 25 -198 47 -271 41 -27 -2 -43 1 -40 7 40 87 59 150
67 223 6 48 14 101 18 117 7 27 9 28 15 10 49 -136 150 -272 231 -310 45 -21
121 -31 160 -21 38 10 102 72 116 113 27 82 10 160 -48 215 -60 57 -214 98
-370 98 -35 0 -63 2 -63 4 0 2 32 80 71 173 39 92 78 185 87 206 8 20 20 37
27 37 7 0 29 -25 49 -56 54 -81 157 -178 223 -211 149 -72 298 -7 296 130 -1
74 -39 122 -137 172 -78 40 -79 40 -195 40 -71 0 -131 -5 -154 -14 -67 -23
-67 -5 -7 121 30 62 71 146 93 186 l39 72 33 -68 c61 -128 185 -221 305 -230
52 -4 60 -2 91 26 32 29 34 34 33 94 0 72 -23 124 -80 188 -55 61 -129 92
-235 99 l-89 6 67 113 c36 61 69 112 72 112 3 0 19 -21 36 -48 81 -128 232
-237 346 -248 105 -11 184 59 183 161 -1 28 -8 64 -17 80 -38 73 -138 140
-246 165 -53 12 -177 9 -213 -5 -28 -11 -21 8 17 49 l35 38 192 -7 c274 -10
367 12 455 108 105 113 139 277 85 399 -41 93 -141 122 -255 74z m-4508 -1692
c2 -2 0 -38 -4 -81 -5 -54 -10 -72 -15 -58 -5 11 -22 51 -39 88 l-31 69 43 -7
c23 -4 44 -9 46 -11z m125 -666 c37 -90 38 -109 1 -121 -36 -12 -98 -54 -160
-107 -49 -43 -93 -52 -115 -25 -7 9 -11 17 -9 19 2 1 20 12 41 24 53 32 98 86
154 185 27 47 52 87 55 87 4 0 19 -28 33 -62z m3023 -289 c45 -49 104 -89 166
-110 l52 -18 -58 -1 c-59 0 -103 -16 -126 -44 -8 -9 -27 -16 -44 -16 -16 0
-44 -11 -62 -24 -17 -13 -49 -31 -71 -40 -21 -9 -51 -31 -66 -49 -14 -17 -29
-29 -32 -26 -5 5 129 352 155 400 l12 23 21 -30 c11 -16 36 -45 53 -65z m2243
37 c0 -2 -7 -7 -16 -10 -8 -3 -12 -2 -9 4 6 10 25 14 25 6z m-2470 -206 c-29
-71 -58 -130 -64 -130 -17 0 -88 50 -84 60 5 13 193 207 197 204 2 -2 -20 -62
-49 -134z m2304 121 c14 -6 -1 -20 -80 -71 -54 -36 -134 -91 -178 -122 -45
-32 -84 -58 -87 -58 -8 0 -53 119 -48 125 2 2 60 24 129 49 69 25 148 54 175
65 55 22 62 23 89 12z m-692 -267 c41 -37 130 -84 160 -84 48 0 46 -12 -10
-58 -31 -25 -107 -90 -169 -144 l-112 -99 -46 8 -47 8 -22 76 c-23 81 -60 150
-107 204 l-30 34 23 6 c13 3 89 24 169 45 79 21 146 39 148 39 2 1 21 -15 43
-35z m-729 -215 c7 -56 52 -125 114 -175 41 -34 49 -44 35 -48 -9 -3 -84 -44
-166 -90 l-150 -85 -45 47 c-45 47 -121 92 -155 92 -13 0 -16 5 -11 23 14 45
75 124 117 152 54 36 227 125 243 125 7 0 15 -18 18 -41z m-943 -159 c28 -68
154 -152 247 -166 47 -7 47 -7 33 -33 -9 -18 -12 -17 -56 5 -30 15 -65 24 -93
24 -41 0 -145 -24 -192 -44 -15 -6 -16 -2 -8 36 4 24 8 64 9 90 0 45 26 118
41 118 3 0 12 -13 19 -30z m-4180 -98 c-14 -9 -42 -32 -63 -51 -25 -23 -41
-31 -48 -24 -12 12 1 24 72 63 60 33 78 38 39 12z m1297 -186 c14 -28 37 -68
50 -90 14 -21 21 -42 16 -46 -11 -12 -220 94 -266 134 l-37 33 59 36 c32 20
74 54 92 74 l34 38 13 -64 c7 -35 25 -87 39 -115z m-1716 -202 c17 -8 29 -18
26 -20 -6 -6 -67 23 -67 31 0 8 10 6 41 -11z m315 -196 c25 -56 132 -163 212
-212 62 -38 75 -58 47 -74 -9 -4 -19 -21 -23 -37 l-8 -28 -38 33 c-21 19 -70
83 -110 144 -91 140 -158 213 -250 273 -40 27 -81 54 -92 61 -10 6 40 -17 112
-52 123 -61 131 -67 150 -108z m-1607 -987 c20 -15 75 -54 124 -86 l87 -58 0
-81 c0 -45 6 -109 14 -143 11 -56 11 -63 -3 -63 -9 0 -108 14 -221 30 -113 17
-218 30 -233 30 l-28 0 49 59 c90 107 162 247 162 311 0 17 3 30 6 30 3 0 23
-13 43 -29z m552 -348 c46 -25 127 -66 179 -90 100 -47 110 -55 110 -89 l0
-21 -92 19 c-51 10 -164 32 -252 48 -87 16 -161 32 -164 35 -5 4 126 145 134
145 1 0 39 -21 85 -47z m6399 -91 c0 -4 -16 -23 -35 -42 l-36 -34 -142 -7
c-79 -3 -154 -9 -167 -13 l-25 -7 27 25 c29 26 152 59 278 75 91 12 100 12
100 3z m-5880 -142 c86 -34 82 -37 -19 -14 -68 15 -79 22 -64 37 8 8 -5 12 83
-23z m-37 -60 c140 -31 131 -26 102 -64 -30 -39 -32 -84 -5 -118 19 -25 19
-25 -1 -66 -22 -43 -28 -122 -15 -181 7 -30 6 -33 -9 -28 -9 4 -47 7 -85 7
l-67 0 21 42 c33 67 27 158 -18 291 -38 115 -42 137 -26 137 6 0 52 -9 103
-20z"/>
</g>
</svg>
